Coordinates
version=1
nRows=37
nColumns=38
inDegrees=no

Units are S.I. units (second, meters, Newtons, ...)
If the header above contains a line with 'inDegrees', this indicates whether rotational values are in degrees (yes) or radians (no).

endheader
time	pelvis_tilt	pelvis_list	pelvis_rotation	pelvis_tx	pelvis_ty	pelvis_tz	hip_flexion_r	hip_adduction_r	hip_rotation_r	knee_angle_r	ankle_angle_r	subtalar_angle_r	mtp_angle_r	hip_flexion_l	hip_adduction_l	hip_rotation_l	knee_angle_l	ankle_angle_l	subtalar_angle_l	mtp_angle_l	lumbar_extension	lumbar_bending	lumbar_rotation	arm_flex_r	arm_add_r	arm_rot_r	elbow_flex_r	pro_sup_r	wrist_flex_r	wrist_dev_r	arm_flex_l	arm_add_l	arm_rot_l	elbow_flex_l	pro_sup_l	wrist_flex_l	wrist_dev_l
0	-2.15994	1.5148	0.658335	0.93861	1.39657	0.955259	0.235448	0.0449082	-0.262389	0.342172	0.0960001	0	0	0.481322	-0.0491502	0.0245424	1.36424	-0.0962225	0	0	-0.0413886	0.0368242	-0.101291	-0.0594903	-0.139899	-0.0788973	0.221868	1.29792	0	0	-0.200903	-0.491287	0.667458	0.755829	0.590226	0	0
0.01	-2.20875	1.51793	0.695659	0.937544	1.38636	0.956269	0.221154	0.0450911	-0.250623	0.336054	0.101972	0	0	0.507233	-0.044224	0.0229922	1.352	-0.081388	0	0	-0.0446596	0.0324546	-0.0887737	-0.0552879	-0.138192	-0.0840622	0.217498	1.30393	0	0	-0.19592	-0.490665	0.66462	0.757853	0.59024	0	0
0.02	-2.22605	1.52266	0.701575	0.936465	1.37562	0.957343	0.201943	0.0452692	-0.239025	0.327579	0.109073	0	0	0.527069	-0.0404787	0.019919	1.33414	-0.0653371	0	0	-0.0509551	0.0277509	-0.0765317	-0.0521607	-0.136308	-0.0906611	0.214643	1.3089	0	0	-0.192288	-0.489738	0.659263	0.759893	0.592013	0	0
0.03	-2.22308	1.5286	0.687204	0.935365	1.36474	0.958385	0.180546	0.0446893	-0.227869	0.318935	0.116709	0	0	0.54269	-0.0375469	0.0155054	1.31126	-0.0487525	0	0	-0.0591459	0.0223954	-0.0645769	-0.0495365	-0.13421	-0.0978855	0.213377	1.31243	0	0	-0.188834	-0.488865	0.653086	0.761656	0.595249	0	0
0.04	-2.22171	1.53432	0.675159	0.934301	1.35382	0.959241	0.159107	0.0435936	-0.217976	0.309904	0.124321	0	0	0.556578	-0.0351989	0.010638	1.28397	-0.031994	0	0	-0.0668865	0.0168267	-0.0540579	-0.0470687	-0.13185	-0.104881	0.212885	1.31481	0	0	-0.185361	-0.488224	0.648691	0.762381	0.598776	0	0
0.05	-2.22207	1.53993	0.665223	0.933229	1.34287	0.959914	0.137452	0.0420554	-0.210118	0.299704	0.132209	0	0	0.568432	-0.0336632	0.00456258	1.25198	-0.0151681	0	0	-0.074268	0.0109335	-0.0443594	-0.0447878	-0.129225	-0.111235	0.212757	1.31692	0	0	-0.181694	-0.487777	0.646473	0.761912	0.603125	0	0
0.06	-2.19199	1.54539	0.625404	0.932182	1.33187	0.960472	0.114923	0.0405248	-0.203896	0.288858	0.139297	0	0	0.577321	-0.0332452	-0.00250032	1.21533	0.00118545	0	0	-0.0821393	0.00543013	-0.0355423	-0.0425799	-0.126456	-0.117936	0.212796	1.32092	0	0	-0.178164	-0.487195	0.643777	0.760197	0.607094	0	0
0.07	-2.16798	1.55175	0.594171	0.930447	1.32078	0.96092	0.0927031	0.0384764	-0.198736	0.279562	0.14675	0	0	0.585818	-0.0469055	-0.00880064	1.17276	0.0250591	0	0	-0.0897373	-0.00297066	-0.0300294	-0.0488498	-0.127858	-0.0479557	0.228888	1.23874	0	0	-0.175667	-0.487401	0.63845	0.756949	0.61596	0	0
0.08	-2.01958	1.55597	0.436652	0.929329	1.30974	0.961192	0.0703896	0.0378	-0.192928	0.270206	0.153939	0	0	0.589133	-0.0500264	-0.0208389	1.12743	0.0396294	0	0	-0.0978785	-0.00740431	-0.0215573	-0.0475671	-0.12503	-0.0520871	0.229417	1.24281	0	0	-0.171005	-0.487105	0.64026	0.753558	0.626606	0	0
0.09	-1.93129	1.55867	0.340427	0.928027	1.2985	0.961062	0.0516268	0.0363327	-0.191608	0.263907	0.162766	0	0	0.592475	-0.0536011	-0.03489	1.07771	0.0549537	0	0	-0.103151	-0.0118686	-0.0148575	-0.0471414	-0.122508	-0.0492412	0.231729	1.23555	0	0	-0.167317	-0.487549	0.643508	0.750157	0.628709	0	0
0.1	-1.85771	1.56154	0.258261	0.926977	1.28732	0.960746	0.0335201	0.0336316	-0.191996	0.258121	0.172163	0	0	0.593313	-0.0576648	-0.0532187	1.02281	0.0687829	0	0	-0.107966	-0.0167554	-0.00765398	-0.046835	-0.120169	-0.0449488	0.23353	1.22862	0	0	-0.163945	-0.488211	0.646251	0.747763	0.630372	0	0
0.11	-1.57397	1.56383	-0.0349663	0.926199	1.27614	0.96039	0.0140313	0.0312723	-0.19071	0.251392	0.179813	0	0	0.589841	-0.0632201	-0.0756325	0.963329	0.0823368	0	0	-0.114045	-0.0210332	0.000795686	-0.0465685	-0.118194	-0.0409901	0.235671	1.22035	0	0	-0.160203	-0.489028	0.650244	0.746138	0.632571	0	0
0.12	-0.995701	1.56116	-0.621493	0.925153	1.2646	0.960333	-0.0202478	0.0366392	-0.167552	0.219713	0.174195	0	0	0.580061	-0.0712242	-0.100787	0.899091	0.0961831	0	0	-0.123001	-0.0220614	0.00836868	-0.0460002	-0.116449	-0.0376989	0.237069	1.21081	0	0	-0.155485	-0.489042	0.654904	0.742497	0.634039	0	0
0.13	-0.777733	1.55705	-0.846561	0.924216	1.25276	0.960087	-0.0638731	0.0440331	-0.12939	0.168506	0.160412	0	0	0.568119	-0.0787486	-0.129718	0.830532	0.108314	0	0	-0.130519	-0.0227126	0.0149239	-0.0463216	-0.114468	-0.0345264	0.238371	1.20062	0	0	-0.15166	-0.489862	0.661108	0.739228	0.635985	0	0
0.14	-0.683264	1.55656	-0.953946	0.923807	1.24094	0.959073	-0.085149	0.0400806	-0.123334	0.155239	0.166857	0	0	0.557485	-0.0724799	-0.160209	0.75912	0.110814	0	0	-0.133934	-0.0245177	0.0247613	-0.0465036	-0.114113	-0.0309951	0.240346	1.19036	0	0	-0.150439	-0.490084	0.667312	0.738057	0.639167	0	0
0.15	-0.738429	1.55828	-0.90429	0.923269	1.22887	0.957715	-0.102517	0.0383787	-0.120918	0.145342	0.173917	0	0	0.549354	-0.0762409	-0.195431	0.685336	0.119393	0	0	-0.133167	-0.0267198	0.029521	-0.0485882	-0.112724	-0.0272159	0.242227	1.18063	0	0	-0.149656	-0.49066	0.6705	0.735775	0.640417	0	0
0.16	-0.32735	1.55659	-1.32244	0.922682	1.21647	0.956855	-0.12765	0.0322196	-0.117015	0.133158	0.180433	0	0	0.529392	-0.0758793	-0.241285	0.603219	0.124748	0	0	-0.138861	-0.0332947	0.0358737	-0.0459314	-0.106762	-0.0651488	0.235036	1.21886	0	0	-0.148094	-0.492226	0.673369	0.733784	0.638356	0	0
0.17	-0.329136	1.55969	-1.32334	0.922749	1.20396	0.955075	-0.143908	0.0294509	-0.119361	0.125105	0.189281	0	0	0.51954	-0.0739188	-0.280672	0.526252	0.131303	0	0	-0.135776	-0.0349862	0.0371703	-0.0487009	-0.105641	-0.0604263	0.234886	1.21143	0	0	-0.150041	-0.491921	0.672706	0.731621	0.639791	0	0
0.18	-0.202183	1.56378	-1.45193	0.923143	1.19128	0.953105	-0.158613	0.0250669	-0.123941	0.119356	0.199726	0	0	0.508911	-0.0673686	-0.320007	0.447367	0.13666	0	0	-0.131569	-0.0375615	0.0377984	-0.0498996	-0.102524	-0.0806616	0.22947	1.23678	0	0	-0.151923	-0.491969	0.675223	0.729719	0.637773	0	0
0.19	0.581502	1.56661	-2.23575	0.923947	1.17849	0.951035	-0.172133	0.0187017	-0.130841	0.11681	0.211427	0	0	0.496244	-0.054453	-0.353781	0.365936	0.140914	0	0	-0.127293	-0.0413361	0.0362888	-0.0528551	-0.101205	-0.0844319	0.2275	1.24027	0	0	-0.154676	-0.491428	0.676326	0.727098	0.6414	0	0
0.2	1.68478	1.56367	2.94549	0.92515	1.16562	0.948804	-0.182244	0.0109061	-0.141393	0.118995	0.224559	0	0	0.482247	-0.0353516	-0.375878	0.280786	0.143089	0	0	-0.121807	-0.0457142	0.0330964	-0.0561937	-0.100351	-0.0897596	0.226527	1.24113	0	0	-0.157925	-0.489888	0.675584	0.722987	0.645256	0	0
0.21	1.83595	1.55691	2.79612	0.926651	1.15259	0.946663	-0.19053	0.000508256	-0.155266	0.128182	0.239875	0	0	0.460465	-0.0086906	-0.375458	0.18402	0.137228	0	0	-0.117802	-0.0516553	0.029083	-0.0595531	-0.0996935	-0.0964917	0.225919	1.2433	0	0	-0.161694	-0.487384	0.671988	0.717557	0.652006	0	0
0.22	1.91348	1.55157	2.7195	0.928095	1.13936	0.944425	-0.196216	-0.00865859	-0.167939	0.142785	0.254996	0	0	0.434206	0.0175452	-0.350159	0.0827318	0.123298	0	0	-0.112463	-0.0559977	0.0228935	-0.0760943	-0.1128	0.0460428	0.252443	1.07025	0	0	-0.170296	-0.482865	0.659334	0.710627	0.667469	0	0
0.23	2.00671	1.54882	2.62458	0.929027	1.12604	0.942136	-0.199737	-0.0149463	-0.175258	0.161231	0.268373	0	0	0.409046	0.0354106	-0.311485	0	0.107501	0	0	-0.10766	-0.0581759	0.0227993	-0.0798955	-0.111717	0.0318049	0.250487	1.09051	0	0	-0.17497	-0.481509	0.659796	0.706602	0.662306	0	0
0.24	2.08986	1.54758	2.54503	0.929728	1.11368	0.939631	-0.198164	-0.0144149	-0.177223	0.189458	0.278619	0	0	0.42231	0.0391102	-0.289907	0	0.117998	0	0	-0.105314	-0.060112	0.0203824	-0.0787855	-0.104686	-0.0333066	0.239379	1.17534	0	0	-0.176245	-0.485006	0.671278	0.706722	0.62474	0	0
0.25	2.22327	1.54762	2.41076	0.93017	1.10073	0.93752	-0.19665	-0.0171322	-0.180895	0.216959	0.288479	0	0	0.429138	0.0388339	-0.273288	0	0.131417	0	0	-0.1013	-0.0600664	0.0193676	-0.0823301	-0.104211	-0.0307084	0.239891	1.17281	0	0	-0.181517	-0.485162	0.670406	0.70352	0.617798	0	0
0.26	2.27768	1.54862	2.35319	0.930482	1.08732	0.935887	-0.198095	-0.0208062	-0.179287	0.242171	0.292082	0	0	0.430616	0.0381152	-0.264062	0	0.142718	0	0	-0.0989544	-0.0604847	0.018519	-0.0887592	-0.107786	0.0175935	0.248537	1.11337	0	0	-0.190035	-0.482457	0.65647	0.696715	0.645301	0	0
0.27	2.46327	1.54253	2.16044	0.930784	1.07311	0.933961	-0.187214	-0.0340796	-0.189246	0.278491	0.305867	0	0	0.429773	0.0383656	-0.26615	0	0.149399	0	0	-0.086261	-0.0630033	0.0233848	-0.090348	-0.102384	-0.0280681	0.240758	1.1668	0	0	-0.197125	-0.485753	0.665499	0.698445	0.608039	0	0
0.28	2.27017	1.54523	2.35101	0.931096	1.05912	0.933178	-0.195383	-0.0426044	-0.186808	0.303914	0.304936	0	0	0.43917	0.0361352	-0.26624	0.0303259	0.152079	0	0	-0.0888125	-0.0683077	0.0236205	-0.0969767	-0.103473	0.00621393	0.247138	1.12442	0	0	-0.205242	-0.485941	0.651505	0.697396	0.63095	0	0
0.29	2.04915	1.54667	2.56901	0.931323	1.04462	0.932487	-0.203541	-0.0518475	-0.185847	0.331662	0.304777	0	0	0.452196	0.0320779	-0.272781	0.093567	0.159524	0	0	-0.0896732	-0.0738205	0.0260787	-0.102329	-0.100825	-0.000290293	0.247226	1.12993	0	0	-0.21307	-0.489235	0.649561	0.699496	0.624747	0	0
0.3	2.04787	1.54661	2.56542	0.931379	1.02986	0.931315	-0.201865	-0.0589577	-0.179712	0.366372	0.302008	0	0	0.474938	0.0220809	-0.287668	0.172735	0.179096	0	0	-0.0828196	-0.0767253	0.0313011	-0.112656	-0.101618	0.0199342	0.253616	1.10044	0	0	-0.221909	-0.494198	0.658621	0.702108	0.599576	0	0
0.31	1.89275	1.54535	2.71362	0.93158	1.01456	0.930552	-0.200831	-0.0702435	-0.1724	0.40433	0.294359	0	0	0.481765	0.0193205	-0.287436	0.226333	0.190957	0	0	-0.0778525	-0.0821475	0.0390098	-0.119695	-0.0997442	0.0101013	0.251139	1.10928	0	0	-0.23183	-0.49663	0.658741	0.702333	0.597474	0	0
0.32	1.95664	1.54433	2.64162	0.93185	0.999028	0.929298	-0.190647	-0.0790039	-0.162027	0.448982	0.283202	0	0	0.494851	0.0126239	-0.292887	0.283102	0.211831	0	0	-0.0661059	-0.0838599	0.0481738	-0.126909	-0.0984671	-0.00502254	0.245474	1.12402	0	0	-0.243999	-0.498179	0.657746	0.703926	0.593395	0	0
0.33	2.01887	1.54356	2.5723	0.932463	0.98325	0.928071	-0.177997	-0.0874628	-0.15186	0.49773	0.266997	0	0	0.50332	0.0088534	-0.292854	0.326622	0.219625	0	0	-0.0538048	-0.0845533	0.0552915	-0.134442	-0.098303	-0.0192513	0.240775	1.13698	0	0	-0.258587	-0.498753	0.652858	0.706622	0.589489	0	0
0.34	2.16302	1.54193	2.42344	0.933435	0.967559	0.926697	-0.158353	-0.0946297	-0.141654	0.553539	0.244377	0	0	0.513528	0.00611447	-0.289842	0.363689	0.208192	0	0	-0.0390645	-0.0840709	0.0594151	-0.141851	-0.0980178	-0.0433591	0.237097	1.1633	0	0	-0.273876	-0.50055	0.652136	0.712584	0.565991	0	0
0.35	2.18997	1.5392	2.39532	0.934778	0.952253	0.925795	-0.135984	-0.10355	-0.132272	0.615073	0.212598	0	0	0.520907	0.00792812	-0.283706	0.395315	0.182708	0	0	-0.0280274	-0.0869716	0.0581945	-0.14809	-0.0985127	-0.0468763	0.236437	1.16919	0	0	-0.290057	-0.50042	0.639376	0.715658	0.574857	0	0
0.36	2.18228	1.53375	2.40575	0.936468	0.937618	0.925225	-0.105803	-0.114501	-0.123181	0.685147	0.171862	0	0	0.531862	0.0131909	-0.275509	0.431415	0.163109	0	0	-0.0178496	-0.093544	0.0534637	-0.151637	-0.0968699	-0.0590712	0.235024	1.18493	0	0	-0.302899	-0.503811	0.635537	0.72199	0.562707	0	0
